<svg xmlns="http://www.w3.org/2000/svg" width="160" height="160" viewBox="0 0 160 160"><defs><style>.cls-1{fill:none;}</style></defs><g id="レイヤー_10" data-name="レイヤー 10"><circle cx="80" cy="80" r="24" transform="translate(-33.14 80) rotate(-45)"/><path d="M148,68H130.59a51.54,51.54,0,0,0-6.33-15.29L136.57,40.4a4,4,0,0,0,0-5.65L125.25,23.43a4,4,0,0,0-5.65,0L107.29,35.74A51.54,51.54,0,0,0,92,29.41V12a4,4,0,0,0-4-4H72a4,4,0,0,0-4,4V29.41a51.54,51.54,0,0,0-15.29,6.33L40.4,23.43a4,4,0,0,0-5.65,0L23.43,34.75a4,4,0,0,0,0,5.65L35.74,52.71A51.54,51.54,0,0,0,29.41,68H12a4,4,0,0,0-4,4V88a4,4,0,0,0,4,4H29.41a51.54,51.54,0,0,0,6.33,15.29L23.43,119.6a4,4,0,0,0,0,5.65l11.32,11.32a4,4,0,0,0,5.65,0l12.31-12.31A51.54,51.54,0,0,0,68,130.59V148a4,4,0,0,0,4,4H88a4,4,0,0,0,4-4V130.59a51.54,51.54,0,0,0,15.29-6.33l12.31,12.31a4,4,0,0,0,5.65,0l11.32-11.32a4,4,0,0,0,0-5.65l-12.31-12.31A51.54,51.54,0,0,0,130.59,92H148a4,4,0,0,0,4-4V72A4,4,0,0,0,148,68ZM80,116a36,36,0,1,1,36-36A36,36,0,0,1,80,116Z"/></g><g id="レイヤー_9" data-name="レイヤー 9"><rect class="cls-1" width="160" height="160"/></g></svg>