<svg xmlns="http://www.w3.org/2000/svg" width="160" height="160" viewBox="0 0 160 160"><defs><style>.cls-1{fill:none;}</style></defs><g id="レイヤー_3" data-name="レイヤー 3"><path d="M128,8H32a8,8,0,0,0-8,8V144a8,8,0,0,0,8,8h96a8,8,0,0,0,8-8V16A8,8,0,0,0,128,8ZM60,136a4,4,0,0,1-4,4H40a4,4,0,0,1-4-4v-8a4,4,0,0,1,4-4H56a4,4,0,0,1,4,4Zm0-24a4,4,0,0,1-4,4H40a4,4,0,0,1-4-4v-8a4,4,0,0,1,4-4H56a4,4,0,0,1,4,4Zm0-24a4,4,0,0,1-4,4H40a4,4,0,0,1-4-4V80a4,4,0,0,1,4-4H56a4,4,0,0,1,4,4Zm32,48a4,4,0,0,1-4,4H72a4,4,0,0,1-4-4v-8a4,4,0,0,1,4-4H88a4,4,0,0,1,4,4Zm0-24a4,4,0,0,1-4,4H72a4,4,0,0,1-4-4v-8a4,4,0,0,1,4-4H88a4,4,0,0,1,4,4Zm0-24a4,4,0,0,1-4,4H72a4,4,0,0,1-4-4V80a4,4,0,0,1,4-4H88a4,4,0,0,1,4,4Zm32,48a4,4,0,0,1-4,4H104a4,4,0,0,1-4-4v-8a4,4,0,0,1,4-4h16a4,4,0,0,1,4,4Zm0-24a4,4,0,0,1-4,4H104a4,4,0,0,1-4-4v-8a4,4,0,0,1,4-4h16a4,4,0,0,1,4,4Zm0-24a4,4,0,0,1-4,4H104a4,4,0,0,1-4-4V80a4,4,0,0,1,4-4h16a4,4,0,0,1,4,4Zm0-40a4,4,0,0,1-4,4H40a4,4,0,0,1-4-4V24a4,4,0,0,1,4-4h80a4,4,0,0,1,4,4Z"/></g><g id="レイヤー_9" data-name="レイヤー 9"><rect class="cls-1" width="160" height="160"/></g></svg>