<svg xmlns="http://www.w3.org/2000/svg" width="160" height="160" viewBox="0 0 160 160"><defs><style>.cls-1{fill:none;}</style></defs><g id="レイヤー_4" data-name="レイヤー 4"><path d="M128,152H32A24.05,24.05,0,0,1,8,128V104H24v24a8,8,0,0,0,8,8h96a8,8,0,0,0,8-8V104h16v24A24.05,24.05,0,0,1,128,152Z"/><polygon points="80 96 116 56 44 56 80 96"/><rect x="64" y="16" width="32" height="54"/><rect x="32" y="120" width="96" height="8"/><rect x="32" y="108" width="96" height="8"/></g><g id="レイヤー_9" data-name="レイヤー 9"><rect class="cls-1" width="160" height="160"/></g></svg>