<svg xmlns="http://www.w3.org/2000/svg" width="160" height="160" viewBox="0 0 160 160"><defs><style>.cls-1{fill:none;}</style></defs><g id="レイヤー_5" data-name="レイヤー 5"><circle cx="28" cy="124" r="12"/><circle cx="132" cy="124" r="12"/><path d="M20.83,56A6,6,0,0,0,15,60.72L8,92v32h4a16,16,0,0,1,32,0h4V56ZM40,92H16l5.39-28.75A4,4,0,0,1,25.31,60H40Z"/><path d="M48,40H28A12,12,0,0,0,16,52H48Z"/><path d="M52,24V96H152V24Zm84,48H96V84L64,60,96,36V48h40Z"/><path d="M48,100v24h68a16,16,0,0,1,32,0h4V100Z"/></g><g id="レイヤー_9" data-name="レイヤー 9"><rect class="cls-1" width="160" height="160"/></g></svg>