<svg xmlns="http://www.w3.org/2000/svg" width="160" height="160" viewBox="0 0 160 160"><defs><style>.cls-1{fill:none;}</style></defs><g id="レイヤー_7" data-name="レイヤー 7"><path d="M56,28V84h64V28ZM96,44H80a4,4,0,0,1,0-8H96a4,4,0,0,1,0,8Z"/><path d="M84,88v56h64V88Zm40,16H108a4,4,0,0,1,0-8h16a4,4,0,0,1,0,8Z"/><path d="M16,88v56H80V88Zm40,16H40a4,4,0,0,1,0-8H56a4,4,0,0,1,0,8Z"/><rect x="55.97" y="23.79" width="32" height="4" transform="translate(-4.22 19.51) rotate(-15.01)"/><rect x="89.15" y="19.71" width="32" height="4" transform="translate(25.05 -49.79) rotate(30.09)"/></g><g id="レイヤー_9" data-name="レイヤー 9"><rect class="cls-1" width="160" height="160"/></g></svg>