<svg xmlns="http://www.w3.org/2000/svg" width="160" height="160" viewBox="0 0 160 160"><defs><style>.cls-1{fill:none;}</style></defs><g id="レイヤー_8" data-name="レイヤー 8"><rect x="52" y="16" width="56" height="40"/><rect x="8" y="100" width="40" height="44"/><rect x="60" y="100" width="40" height="44"/><rect x="112" y="100" width="40" height="44"/><path d="M136,131h-8V88a8,8,0,0,0-8-8H40a8,8,0,0,0-8,8v43H24V88A16,16,0,0,1,40,72h80a16,16,0,0,1,16,16Z"/><rect x="76" y="52.49" width="8" height="53.02"/></g><g id="レイヤー_9" data-name="レイヤー 9"><rect class="cls-1" width="160" height="160"/></g></svg>