<svg xmlns="http://www.w3.org/2000/svg" width="160" height="160" viewBox="0 0 160 160"><defs><style>.cls-1{fill:none;}</style></defs><g id="レイヤー_1" data-name="レイヤー 1"><path d="M116,36h-8V24a4,4,0,0,0-4-4H56a4,4,0,0,0-4,4V36H44V24A12,12,0,0,1,56,12h48a12,12,0,0,1,12,12Z"/><path d="M144,40H16a8,8,0,0,0-8,8V72H68V64H92v8h60V48A8,8,0,0,0,144,40Z"/><path d="M92,80V96H68V80H8v48a8,8,0,0,0,8,8H144a8,8,0,0,0,8-8V80Z"/></g><g id="レイヤー_9" data-name="レイヤー 9"><rect class="cls-1" width="160" height="160"/></g></svg>